{
  "accessors": [
    {
      "name": "stzj2_65_1_0_positions",
      "componentType": 5126,
      "count": 158,
      "min": [
        -542026.625,
        481655.75,
        -161197.375
      ],
      "max": [
        -539042.0625,
        484640.25,
        -159194.75
      ],
      "type": "VEC3",
      "bufferView": 0,
      "byteOffset": 0
    },
    {
      "name": "stzj2_65_1_0_normals",
      "componentType": 5126,
      "count": 158,
      "min": [
        -0.9943326115608215,
        -0.994353175163269,
        -0.9999996423721313
      ],
      "max": [
        0.9943033456802368,
        0.9942737817764282,
        0.9999998211860657
      ],
      "type": "VEC3",
      "bufferView": 1,
      "byteOffset": 0
    },
    {
      "name": "stzj2_65_1_0_texcoords",
      "componentType": 5126,
      "count": 158,
      "min": [
        -0.2337999939918518,
        0
      ],
      "max": [
        0.9537000060081482,
        1
      ],
      "type": "VEC2",
      "bufferView": 2,
      "byteOffset": 0
    },
    {
      "name": "stzj2_65_1_0_indices",
      "componentType": 5123,
      "count": 234,
      "min": [
        0
      ],
      "max": [
        157
      ],
      "type": "SCALAR",
      "bufferView": 3,
      "byteOffset": 0
    }
  ],
  "asset": {
    "generator": "obj2gltf",
    "version": "2.0"
  },
  "buffers": [
    {
      "name": "stzj2_65",
      "byteLength": 5524,
      "uri": "data:application/octet-stream;base64,"
    }
  ],
  "bufferViews": [
    {
      "name": "bufferView_0",
      "buffer": 0,
      "byteLength": 1896,
      "byteOffset": 0,
      "byteStride": 12,
      "target": 34962
    },
    {
      "name": "bufferView_1",
      "buffer": 0,
      "byteLength": 1896,
      "byteOffset": 1896,
      "byteStride": 12,
      "target": 34962
    },
    {
      "name": "bufferView_2",
      "buffer": 0,
      "byteLength": 1264,
      "byteOffset": 3792,
      "byteStride": 8,
      "target": 34962
    },
    {
      "name": "bufferView_3",
      "buffer": 0,
      "byteLength": 468,
      "byteOffset": 5056,
      "target": 34963
    }
  ],
  "materials": [
    {
      "name": "zhuangji",
      "pbrMetallicRoughness": {
        "baseColorFactor": [
          0.7843,
          0.8627,
          0.8627,
          1
        ],
        "metallicFactor": 0,
        "roughnessFactor": 0.995
      },
      "emissiveFactor": [
        0,
        0,
        0
      ],
      "alphaMode": "OPAQUE",
      "doubleSided": false
    }
  ],
  "meshes": [
    {
      "name": "stzj2_65_1",
      "primitives": [
        {
          "attributes": {
            "POSITION": 0,
            "NORMAL": 1,
            "TEXCOORD_0": 2
          },
          "indices": 3,
          "material": 0,
          "mode": 4
        }
      ]
    }
  ],
  "nodes": [
    {
      "name": "stzj2_65",
      "mesh": 0
    }
  ],
  "scene": 0,
  "scenes": [
    {
      "nodes": [
        0
      ]
    }
  ]
}
